<?xml version="1.0" encoding="UTF-8"?>
<svg version="1.1" xmlns="http://www.w3.org/2000/svg" width="500" height="500">
<path d="M0 0 C165 0 330 0 500 0 C500 165 500 330 500 500 C335 500 170 500 0 500 C0 335 0 170 0 0 Z " fill="#FEFDFE" transform="translate(0,0)"/>
<path d="M0 0 C6.27116411 5.13144663 11.90130618 10.70269822 17 17 C20.32436221 15.89187926 20.92685332 15.14463373 23.0625 12.5 C36.44011975 -3.10258769 55.10587476 -14.68184746 75.88110352 -16.85205078 C101.9669482 -18.6734613 125.16940146 -13.60856513 145.44140625 3.73046875 C146.28574219 4.47941406 147.13007813 5.22835937 148 6 C148.71027344 6.61488281 149.42054688 7.22976562 150.15234375 7.86328125 C164.34002387 20.98337356 173.93586989 41.86277124 175.1262207 61.03271484 C176.09824812 88.07050616 169.24084236 114.53775109 156.01367188 138.18164062 C154.9548551 140.08098248 153.93721015 141.9989777 152.921875 143.921875 C144.65917812 159.34256987 134.41876577 174.58123423 122 187 C120.00176441 187.13381042 118.00106963 187.23143815 116 187.3125 C107.35989722 187.9181589 100.88907361 190.75118201 94 196 C92.16699091 198.10575643 92.16699091 198.10575643 91 200 C88.25016408 198.91970732 87.01158231 198.01501227 85.1796875 195.640625 C79.46089955 188.71248763 70.3852524 184.78189977 62 182 C60.44539063 181.46632812 60.44539063 181.46632812 58.859375 180.921875 C42.90997131 177.11209841 26.73456005 179.84937868 12.625 187.875 C3.37226681 193.86476602 -5.36422249 201.0460651 -13 209 C-13.3403125 208.43152344 -13.680625 207.86304688 -14.03125 207.27734375 C-20.77610021 196.53222333 -27.94982998 191.87171528 -40 188 C-41.13824219 187.63003906 -42.27648437 187.26007813 -43.44921875 186.87890625 C-53.9335397 184.2837773 -67.04211787 185.12683762 -76.9375 189.6875 C-80 191 -80 191 -81.8828125 190.921875 C-85.02435114 189.55397257 -86.82451962 187.16279421 -88.9375 184.5625 C-89.41058594 183.98902832 -89.88367188 183.41555664 -90.37109375 182.82470703 C-111.00889599 157.45069041 -128.68356538 128.1372424 -136 96 C-136.28101563 94.91589844 -136.56203125 93.83179688 -136.8515625 92.71484375 C-142.59907363 68.46249538 -138.8112904 45.2587195 -126.66015625 23.66015625 C-114.26066837 3.79180038 -94.22276144 -10.28603505 -71.55249023 -15.92163086 C-46.62027864 -21.13638685 -20.12708045 -15.51056067 0 0 Z " fill="#F2ABBA" transform="translate(232,67)"/>
<path d="M0 0 C3.23455041 2.66928918 6.17390587 5.57597376 9.01171875 8.66015625 C12.05667446 7.32142572 13.84748696 5.91254925 16.01171875 3.41015625 C23.74426277 -4.57236225 34.82284702 -8.33446791 45.69921875 -8.71484375 C57.45105844 -8.5154488 68.42210398 -4.25872988 77.19921875 3.625 C86.66720585 13.54128194 91.51054504 25.64629209 91.26171875 39.26953125 C90.86579712 44.6392183 89.61847399 49.5353845 88.01171875 54.66015625 C87.67140625 55.77261719 87.33109375 56.88507813 86.98046875 58.03125 C80.33344346 78.17443137 67.33621378 94.12949387 52.61035156 109.03173828 C51.24552468 110.42199413 49.9174981 111.84821783 48.59765625 113.28125 C42.61446306 119.04245192 36.49901387 119.73008086 28.55517578 120.65576172 C18.65331307 121.81360348 9.81171254 124.63371108 1.890625 130.9375 C-1.19629574 132.12477721 -3.03633802 130.96651744 -5.98828125 129.66015625 C-8.30241381 128.19407706 -10.48164409 126.72203149 -12.67578125 125.09765625 C-13.28518555 124.65292969 -13.89458984 124.20820313 -14.52246094 123.75 C-32.53321574 110.49378319 -47.79417412 95.12816864 -58.98828125 75.66015625 C-59.58382812 74.62890625 -60.179375 73.59765625 -60.79296875 72.53515625 C-68.2642059 58.6829054 -74.01984988 41.46387629 -70.2890625 25.70703125 C-65.96231368 12.63550317 -58.18291465 2.20467875 -45.86328125 -4.27734375 C-30.65876019 -11.113485 -13.70404522 -9.90440237 0 0 Z " fill="#AB2238" transform="translate(239.98828125,126.33984375)"/>
<path d="M0 0 C1.52173828 0.495 1.52173828 0.495 3.07421875 1 C15.00467027 5.21237777 26.55467458 12.54922211 34 23 C37.35635879 21.88121374 37.80053522 21.20862759 39.875 18.5 C46.6328448 10.53948791 56.22744363 4.54389407 66 1 C67.02480469 0.55527344 67.02480469 0.55527344 68.0703125 0.1015625 C82.90542374 -5.53267835 100.93782055 -2.3482163 115.26953125 3.28515625 C132.21401832 11.09397635 143.43892163 24.73511109 150 42 C157.94778488 64.54882908 150.59272427 90.30434043 140.63671875 111.109375 C129.611225 133.0540979 113.89514594 151.3702825 97 169 C93.7090206 168.23010395 90.92633664 167.09284416 87.875 165.625 C77.85605537 161.04566732 69.02927532 159.4608775 58 159 C58 158.67 58 158.34 58 158 C58.63558838 157.92885986 59.27117676 157.85771973 59.92602539 157.78442383 C66.8576165 156.74860919 70.58052734 154.64417786 75.4375 149.6875 C76.07582764 149.06157959 76.71415527 148.43565918 77.37182617 147.79077148 C96.55688675 128.69705689 114.64976912 104.086122 115.3125 75.9375 C115.17469511 63.71420615 110.25946949 53.01538 102.15625 43.93359375 C97.13096919 39.16575561 91.40912582 36.48596395 85 34 C83.906875 33.566875 82.81375 33.13375 81.6875 32.6875 C69.50764996 30.4166805 58.27245617 32.07088474 47.5546875 38.45703125 C43.28736344 41.53177615 39.62037339 45.19860794 36 49 C32.92792944 47.65015081 31.08485746 46.19163496 28.875 43.6875 C21.05937151 35.67189808 9.50407265 31.92171005 -1.5 31.625 C-13.68804833 31.95402008 -24.21015822 36.76501641 -33.15234375 44.99609375 C-41.48085179 54.02891537 -45.85506322 65.8741039 -45.44140625 78.0703125 C-42.49842466 104.2706619 -28.21519396 124.86713245 -11 144 C-10.34644531 144.73863281 -9.69289063 145.47726563 -9.01953125 146.23828125 C0.28546962 156.15950735 12.40054133 164.0206647 24 171 C23.28972656 171.556875 22.57945312 172.11375 21.84765625 172.6875 C18.95317672 175.03802384 16.19177595 177.48705838 13.4375 180 C12.50808594 180.845625 11.57867187 181.69125 10.62109375 182.5625 C8.36214978 184.6632169 6.16306267 186.80131042 4 189 C3.6596875 188.43152344 3.319375 187.86304688 2.96875 187.27734375 C-3.76904715 176.54345946 -10.93943031 171.84517523 -23 168 C-24.27875 167.71125 -25.5575 167.4225 -26.875 167.125 C-34.31094228 164.44806078 -39.03126472 156.63905206 -43.81640625 150.67578125 C-45.62793963 148.45592371 -47.49242583 146.35068011 -49.4375 144.25 C-70.00692786 120.78947744 -85.07071591 86.79096614 -83.25146484 55.31201172 C-81.78851616 41.86140587 -75.41186795 30.27502292 -67 20 C-66.38253906 19.17886719 -65.76507813 18.35773438 -65.12890625 17.51171875 C-50.32130007 0.04146045 -21.71221641 -7.3007803 0 0 Z " fill="#E65A70" transform="translate(215,87)"/>
<path d="M0 0 C4.15750419 2.90718466 7.25443946 5.94247268 9.5546875 10.54296875 C9.99659003 13.76254436 10.10045203 15.57985488 8.4921875 18.41796875 C5.47896611 20.16758117 2.8910425 20.10694335 -0.4453125 19.54296875 C-2.30925365 18.90414025 -4.16269057 18.23427443 -6.0078125 17.54296875 C-15.41234822 14.24726162 -25.14991125 13.99954463 -34.2734375 18.29296875 C-45.26689377 24.62013782 -51.52798594 35.79098907 -55.4453125 47.54296875 C-56.24070068 56.83988302 -55.56901849 64.77667236 -50.04296875 72.50390625 C-44.75369139 78.42686232 -36.31797545 83.22839651 -28.4453125 84.54296875 C-18.68827022 85.0365603 -9.87572294 84.26165733 -0.44921875 81.7421875 C11.32343009 78.64102782 11.32343009 78.64102782 16.5546875 79.54296875 C20.16326427 82.23778574 22.19279534 85.12555778 23.3046875 89.48046875 C21.89923404 95.21940372 18.91310408 98.96344551 14.01171875 102.24609375 C-2.30612538 110.96656106 -21.3948099 113.57345297 -39.3359375 108.6328125 C-54.27501205 103.39662934 -68.57896976 93.71230757 -75.65234375 79.0390625 C-81.35765181 65.51163597 -81.37221717 48.34529033 -76.4453125 34.54296875 C-68.62177001 16.86755794 -55.57358735 2.80409102 -37.4453125 -4.45703125 C-24.29320655 -8.81093574 -11.817361 -7.04133491 0 0 Z " fill="#AC243A" transform="translate(299.4453125,270.45703125)"/>
<path d="M0 0 C4.46902237 2.77493327 7.92688384 6.71314267 10.27734375 11.4140625 C10.51067708 17.94739583 10.51067708 17.94739583 9.27734375 20.4140625 C5.33405026 19.99897897 1.85759343 19.60747906 -1.91015625 18.3515625 C-10.81338139 16.16224484 -19.32926124 16.83683594 -27.72265625 20.4140625 C-28.73328125 20.8059375 -29.74390625 21.1978125 -30.78515625 21.6015625 C-31.42453125 21.8696875 -32.06390625 22.1378125 -32.72265625 22.4140625 C-32.88317322 25.7433854 -32.88317322 25.7433854 -31.72265625 29.4140625 C-29.24041987 31.64722963 -26.39233222 33.00970768 -23.41015625 34.4765625 C-22.59289062 34.90573975 -21.775625 35.33491699 -20.93359375 35.77709961 C-16.41857145 38.13104381 -11.82945063 40.30865926 -7.22265625 42.4765625 C2.67563639 47.35020173 10.34032539 54.92570717 14.37890625 65.22265625 C16.28825477 72.00499427 16.64213869 80.34785109 13.77734375 86.9140625 C9.93395167 93.25633847 3.14576879 97.12458749 -3.72265625 99.4140625 C-14.03103201 101.9317764 -27.68627538 104.30791465 -37.34765625 98.8515625 C-41.99648058 95.55113241 -46.15150209 91.55637081 -48.72265625 86.4140625 C-49.2666491 81.8748435 -49.34555086 78.4596356 -46.97265625 74.4765625 C-43.59215662 71.37777117 -40.94556214 70.13179649 -36.34765625 70.1640625 C-35.25324219 70.15632813 -35.25324219 70.15632813 -34.13671875 70.1484375 C-31.72265625 70.4140625 -31.72265625 70.4140625 -28.88671875 71.41796875 C-25.263972 72.5584631 -22.26260449 72.64591296 -18.47265625 72.6015625 C-17.250625 72.59511719 -16.02859375 72.58867187 -14.76953125 72.58203125 C-11.80543424 72.62099406 -11.80543424 72.62099406 -9.72265625 71.4140625 C-10.79034857 67.57037015 -12.21742539 65.52958926 -15.6328125 63.43359375 C-18.34474223 62.11057757 -21.1353402 61.12754133 -23.97265625 60.1015625 C-30.36874028 57.72213192 -35.39110982 54.62991654 -40.72265625 50.4140625 C-41.80353516 49.63095703 -41.80353516 49.63095703 -42.90625 48.83203125 C-49.44266893 43.7536415 -53.59444208 36.90903369 -55.265625 28.76953125 C-55.71027263 21.13841645 -52.7317006 14.85727758 -47.7734375 9.18359375 C-35.39579283 -2.66072333 -15.99153478 -6.84999487 0 0 Z " fill="#AC243A" transform="translate(193.72265625,273.5859375)"/>
<path d="M0 0 C4.73439605 3.22341859 6.49042287 7.62219188 8 13 C8.38007937 15.88365582 8.39855236 18.71171285 8.36328125 21.6171875 C8.36459549 22.42388885 8.36590973 23.23059021 8.36726379 24.06173706 C8.36568748 26.66652752 8.34053699 29.27036994 8.3125 31.875 C8.30249705 33.67740844 8.29256917 35.4798173 8.28271484 37.28222656 C7.87223858 87.934998 7.87223858 87.934998 0 97 C-3.18227545 99.12151697 -5.20067838 99.55222655 -9.00390625 99.43359375 C-11.85538188 98.81419298 -13.35118463 97.22915432 -14.98101807 94.87385559 C-19.15510404 87.19792525 -19.41983379 79.73422636 -19.328125 71.14453125 C-19.32625183 69.92529465 -19.32437866 68.70605804 -19.32244873 67.44987488 C-19.31575123 64.87890881 -19.3018829 62.30795254 -19.28125 59.73706055 C-19.25023638 55.84218641 -19.24028433 51.94771957 -19.234375 48.05273438 C-19.22519693 45.54166183 -19.21481863 43.03059334 -19.203125 40.51953125 C-19.19887512 39.37321732 -19.19462524 38.22690338 -19.19024658 37.04585266 C-18.96522691 11.02317617 -18.96522691 11.02317617 -14 3 C-9.8349388 -0.96036802 -5.47187163 -0.92382248 0 0 Z " fill="#AB2339" transform="translate(352,273)"/>
<path d="M0 0 C2.88615675 1.35288598 3.55862603 3.12468395 5 5.9375 C6.77178378 13.16675682 8.02587609 21.49989838 7 28.9375 C6.34 29.5975 5.68 30.2575 5 30.9375 C3.35 30.6075 1.7 30.2775 0 29.9375 C-0.66 23.9975 -1.32 18.0575 -2 11.9375 C-2.61875 13.71125 -3.2375 15.485 -3.875 17.3125 C-5.75 22.6875 -5.75 22.6875 -8 24.9375 C-10.44921875 24.90234375 -10.44921875 24.90234375 -13 23.9375 C-14.58203125 21.50390625 -14.58203125 21.50390625 -15.8125 18.5 C-16.23144531 17.51128906 -16.65039062 16.52257812 -17.08203125 15.50390625 C-18 12.9375 -18 12.9375 -18 10.9375 C-18.66 10.9375 -19.32 10.9375 -20 10.9375 C-19.98839844 11.55496094 -19.97679687 12.17242187 -19.96484375 12.80859375 C-19.80149813 28.13974719 -19.80149813 28.13974719 -23 32.9375 C-24.65 32.6075 -26.3 32.2775 -28 31.9375 C-28.40724849 25.66285665 -27.7966385 19.72484828 -26.6875 13.5625 C-26.56979248 12.87285156 -26.45208496 12.18320312 -26.33081055 11.47265625 C-25.58892366 7.59187112 -24.6854585 4.87119416 -22 1.9375 C-18.75480334 2.24156442 -17.38099448 2.50030677 -15.19921875 5.00390625 C-14.70035156 5.82761719 -14.20148438 6.65132813 -13.6875 7.5 C-13.17574219 8.32628906 -12.66398438 9.15257812 -12.13671875 10.00390625 C-11.76160156 10.64199219 -11.38648438 11.28007812 -11 11.9375 C-8.54874452 9.48624452 -7.51803672 6.94078735 -6.09765625 3.8125 C-4.58747264 1.23282694 -3.07365116 -0.0960516 0 0 Z " fill="#E86277" transform="translate(148,401.0625)"/>
<path d="M0 0 C2.4375 0 2.4375 0 5 1 C7.94952337 5.74030542 9.13496815 10.02471377 9.09765625 15.546875 C9.09443359 16.39121094 9.09121094 17.23554688 9.08789062 18.10546875 C9.07532227 19.41451172 9.07532227 19.41451172 9.0625 20.75 C9.05798828 21.63816406 9.05347656 22.52632813 9.04882812 23.44140625 C9.037074 25.62767329 9.02064249 27.81380179 9 30 C7.35 30.33 5.7 30.66 4 31 C1.52954197 27.18384532 1.56168088 23.15255752 1.375 18.75 C1.33632813 18.00492187 1.29765625 17.25984375 1.2578125 16.4921875 C1.16394892 14.6618476 1.08090282 12.83095857 1 11 C0.54560547 12.39025391 0.54560547 12.39025391 0.08203125 13.80859375 C-0.33691406 15.00613281 -0.75585938 16.20367187 -1.1875 17.4375 C-1.59355469 18.63246094 -1.99960937 19.82742188 -2.41796875 21.05859375 C-4 24 -4 24 -6.67578125 24.91015625 C-7.82626953 24.95462891 -7.82626953 24.95462891 -9 25 C-12.32993034 21.17058011 -14.05324525 16.62477778 -16 12 C-16.12117188 13.09699219 -16.24234375 14.19398438 -16.3671875 15.32421875 C-16.53609363 16.77868823 -16.70538481 18.23311304 -16.875 19.6875 C-16.95363281 20.40873047 -17.03226562 21.12996094 -17.11328125 21.87304688 C-17.5896051 25.88515932 -18.26300142 29.29975512 -20 33 C-21.65 32.67 -23.3 32.34 -25 32 C-25.9835311 10.07089917 -25.9835311 10.07089917 -20.51171875 3.10546875 C-19 2 -19 2 -17.125 1.9375 C-12.6164953 4.19175235 -10.0940833 8.57168623 -8 13 C-7.59007812 12.22914063 -7.18015625 11.45828125 -6.7578125 10.6640625 C-6.21898437 9.66117187 -5.68015625 8.65828125 -5.125 7.625 C-4.59132813 6.62726563 -4.05765625 5.62953125 -3.5078125 4.6015625 C-2 2 -2 2 0 0 Z " fill="#E86076" transform="translate(276,401)"/>
<path d="M0 0 C3.42579111 0.75860255 6.774615 1.604893 10 3 C10.495 3.99 10.495 3.99 11 5 C-11.38850081 19.28215524 -11.38850081 19.28215524 -23 24 C-23 15.42088466 -19.63023075 10.33900093 -14 4 C-9.21274514 -0.3914288 -6.266911 -0.83624401 0 0 Z " fill="#F2ADBC" transform="translate(284,303)"/>
<path d="M0 0 C3.3125 0.9375 3.3125 0.9375 6.3125 2.9375 C6.61675263 5.95914626 6.73024865 8.73147016 6.6875 11.75 C6.69910156 12.55759766 6.71070313 13.36519531 6.72265625 14.19726562 C6.69932789 18.94458598 6.33945822 22.06477404 3.3125 25.9375 C0.9381736 28.23268219 -0.11524033 28.89848229 -3.4375 29.125 C-4.55125 29.0321875 -4.55125 29.0321875 -5.6875 28.9375 C-6.0175 27.6175 -6.3475 26.2975 -6.6875 24.9375 C-5.924375 24.380625 -5.16125 23.82375 -4.375 23.25 C-1.72609112 20.97070631 -0.30461178 19.00150128 1.3125 15.9375 C0.24 16.185 -0.8325 16.4325 -1.9375 16.6875 C-5.6875 16.9375 -5.6875 16.9375 -8.125 15.5 C-9.8879581 12.60874872 -10.38353802 10.30807942 -10.19921875 6.9140625 C-9.6875 4.9375 -9.6875 4.9375 -7.125 1.875 C-3.6875 -0.0625 -3.6875 -0.0625 0 0 Z " fill="#E86378" transform="translate(373.6875,413.0625)"/>
<path d="M0 0 C0.99 0 1.98 0 3 0 C3.99 3.96 4.98 7.92 6 12 C7.98 12 9.96 12 12 12 C14.72839845 13.69603147 15.76250784 15.03963026 16.53515625 18.1640625 C17.4154634 24.3768049 17.4154634 24.3768049 15 28 C14.01 27.67 13.02 27.34 12 27 C11.67 24.03 11.34 21.06 11 18 C7.6433715 20.23775234 7.42003986 20.93320048 6.3125 24.625 C6.06113281 25.44226563 5.80976563 26.25953125 5.55078125 27.1015625 C5.36902344 27.72804688 5.18726563 28.35453125 5 29 C3.68 29 2.36 29 1 29 C-2.53942871 20.97153977 -2.90339295 10.68175938 -2 2 C-1.34 1.34 -0.68 0.68 0 0 Z " fill="#E86176" transform="translate(219,402)"/>
<path d="M0 0 C2.25 0.9375 2.25 0.9375 4 3 C5.68051859 7.71453593 6.56979014 12.13365057 5 17 C2.78474988 17.71204468 1.40349126 18.10759767 -0.875 17.5 C-3.14096786 16.80881508 -3.14096786 16.80881508 -6 17.625 C-9 18 -9 18 -11.375 17.0625 C-13.44128711 14.43990483 -13.55781889 12.28994347 -13.39453125 9 C-12.7792421 5.88091044 -11.24195313 4.17789733 -9 2 C-5.51131349 -0.32579101 -4.10281481 -0.41865457 0 0 Z " fill="#E86378" transform="translate(171,413)"/>
<path d="M0 0 C3.14700559 2.38151774 4.29577652 4.18890822 5 8 C5.06548492 9.58211573 5.08578381 11.16670081 5.0625 12.75 C5.05347656 13.54921875 5.04445313 14.3484375 5.03515625 15.171875 C5.02355469 15.77515625 5.01195312 16.3784375 5 17 C3.1875 17.625 3.1875 17.625 1 18 C0.01 17.34 -0.98 16.68 -2 16 C-2.99 16.66 -3.98 17.32 -5 18 C-7.76059793 18.34507474 -9.36202878 18.35198412 -11.8125 17 C-13.72945547 13.77144342 -13.74303446 10.58007513 -13 7 C-9.77589756 1.43543802 -6.39391115 -0.63939111 0 0 Z " fill="#E86176" transform="translate(302,413)"/>
<path d="M0 0 C1.32 0.33 2.64 0.66 4 1 C4.66 4.96 5.32 8.92 6 13 C7.65 12.01 9.3 11.02 11 10 C13.3125 10.3125 13.3125 10.3125 15 11 C13.63016497 14.16115776 13.0109362 14.9927092 10 17 C10.75796875 17.45439453 10.75796875 17.45439453 11.53125 17.91796875 C13.49479823 19.18414568 15.28557949 20.41018649 17 22 C17.4375 24.8125 17.4375 24.8125 17 27 C12.12637153 26.54663921 9.60957611 25.2910841 6 22 C5.34 23.32 4.68 24.64 4 26 C2.35 26 0.7 26 -1 26 C-2.17906417 23.64187166 -2.05539807 22.43725092 -1.9140625 19.82421875 C-1.87023437 18.99599609 -1.82640625 18.16777344 -1.78125 17.31445312 C-1.7296875 16.44755859 -1.678125 15.58066406 -1.625 14.6875 C-1.58117187 13.83220703 -1.53734375 12.97691406 -1.4921875 12.09570312 C-1.26271282 7.98109471 -0.97790543 4.01935708 0 0 Z " fill="#E86378" transform="translate(312,405)"/>
<path d="M0 0 C0.99 0 1.98 0 3 0 C3 0.66 3 1.32 3 2 C3.515625 1.67 4.03125 1.34 4.5625 1 C7.78026512 -0.32010877 10.5570528 -0.13242105 14 0 C17.20053658 4.90082164 18.71085211 7.95775707 18 14 C17.34 14.66 16.68 15.32 16 16 C12.46428571 15.46428571 12.46428571 15.46428571 11 14 C10.85884839 11.32941149 10.95752893 8.67567762 11 6 C7.18699218 9.2870757 5.77027754 12.39727838 4 17 C2.35 16.67 0.7 16.34 -1 16 C-1.02685095 13.52076199 -1.04676547 11.0418116 -1.0625 8.5625 C-1.07506836 7.50192383 -1.07506836 7.50192383 -1.08789062 6.41992188 C-1.09653588 4.61306441 -1.05220011 2.80612397 -1 1 C-0.67 0.67 -0.34 0.34 0 0 Z " fill="#E86176" transform="translate(343,415)"/>
<path d="M0 0 C0.99 0.33 1.98 0.66 3 1 C3 2.98 3 4.96 3 7 C4.65 7 6.3 7 8 7 C8.66 8.32 9.32 9.64 10 11 C9.34 11.66 8.68 12.32 8 13 C6.68 13 5.36 13 4 13 C4 14.98 4 16.96 4 19 C5.98 19 7.96 19 10 19 C10 20.32 10 21.64 10 23 C9 24 9 24 5.125 24.3125 C1.30659178 24.23736138 1.30659178 24.23736138 -0.9375 22.5 C-2.17056283 19.5986757 -2.53562443 17.023065 -2.80859375 13.8984375 C-2.95291266 11.89546386 -2.95291266 11.89546386 -3.6875 9.625 C-3.790625 9.08875 -3.89375 8.5525 -4 8 C-3.34 7.34 -2.68 6.68 -2 6 C-1.28591666 4.01643517 -0.61382258 2.01684563 0 0 Z " fill="#E86277" transform="translate(184,407)"/>
<path d="M0 0 C2.875 0.6875 2.875 0.6875 3.875 1.6875 C3.91563832 3.35367115 3.917721 5.02138095 3.875 6.6875 C0.905 6.1925 0.905 6.1925 -2.125 5.6875 C-2.785 8.3275 -3.445 10.9675 -4.125 13.6875 C-0.825 13.6875 2.475 13.6875 5.875 13.6875 C4.875 17.6875 4.875 17.6875 3.25 18.9375 C-0.06600187 19.98465848 -2.66823162 20.05786804 -6.125 19.6875 C-8.5625 18.1875 -8.5625 18.1875 -10.125 15.6875 C-10.76005394 10.76583199 -10.66833004 8.699218 -8.3125 4.3125 C-4.35576923 -0.43557692 -4.35576923 -0.43557692 0 0 Z " fill="#E8657A" transform="translate(208.125,412.3125)"/>
<path d="M0 0 C1.32 0.33 2.64 0.66 4 1 C4.05402274 3.10388569 4.09280256 5.20816714 4.125 7.3125 C4.14820313 8.48425781 4.17140625 9.65601563 4.1953125 10.86328125 C4 14 4 14 2 17 C0.68 16.67 -0.64 16.34 -2 16 C-2.05449838 14.27119018 -2.09301688 12.54187288 -2.125 10.8125 C-2.14820313 9.84957031 -2.17140625 8.88664062 -2.1953125 7.89453125 C-1.9913544 4.87187222 -1.26874632 2.73230015 0 0 Z " fill="#EA6F83" transform="translate(335,415)"/>
<path d="M0 0 C1.98 0.495 1.98 0.495 4 1 C3.67 2.32 3.34 3.64 3 5 C1.68 4.67 0.36 4.34 -1 4 C-0.67 2.68 -0.34 1.36 0 0 Z " fill="#EB7587" transform="translate(334,407)"/>
<path d="M0 0 C0.6875 1.8125 0.6875 1.8125 1 4 C-0.3125 5.75 -0.3125 5.75 -2 7 C-2.66 7 -3.32 7 -4 7 C-2.92598892 4.08482708 -2.22189824 2.22189824 0 0 Z " fill="#FCE4E9" transform="translate(298,418)"/>
<path d="M0 0 C0.66 0 1.32 0 2 0 C1.67 1.65 1.34 3.3 1 5 C0.01 5.33 -0.98 5.66 -2 6 C-1.125 1.125 -1.125 1.125 0 0 Z " fill="#FCE7EC" transform="translate(166,419)"/>
</svg>
